<svg width="400" height="500" viewBox="0 0 500 450" fill="none" xmlns="http://www.w3.org/2000/svg">
<path d="M209.465 110.279C220.844 102.045 243.633 94.2471 255.438 110.516C285.622 152.116 284.68 173.999 287.015 208.667C288.113 224.973 292.339 246.962 287.943 262.918C283.273 279.872 269.757 288.283 257.759 271.653" stroke="white" stroke-opacity="0.9" stroke-width="16" stroke-linecap="round" stroke-linejoin="round"/>
<path d="M251.381 191.157C278.056 247.054 339.746 238.92 339.746 173.777" stroke="white" stroke-opacity="0.9" stroke-width="16" stroke-linecap="round" stroke-linejoin="round"/>
<path d="M294.432 231.675C336.072 269.434 398.361 203.922 367.899 179.463" stroke="white" stroke-opacity="0.9" stroke-width="16" stroke-linecap="round" stroke-linejoin="round"/>
<path d="M206.066 114.014C174.216 98.71 91.0492 131.615 68.1095 154.649C57.6834 165.119 49.289 177.547 43.2776 191.128C28.8463 223.733 41.6566 259.758 34.9999 293.177" stroke="white" stroke-opacity="0.9" stroke-width="16" stroke-linecap="round" stroke-linejoin="round"/>
<path d="M217.926 201.068C228.543 233.018 211.588 268.862 221.926 300" stroke="white" stroke-opacity="0.9" stroke-width="16" stroke-linecap="round" stroke-linejoin="round"/>
<path d="M172.838 246.555C179.732 262.829 170.947 280.086 170.947 295.452" stroke="white" stroke-opacity="0.9" stroke-width="16" stroke-linecap="round" stroke-linejoin="round"/>
<path d="M167.547 247.691C145.242 259.866 123.942 248.701 101.839 248.701" stroke="white" stroke-opacity="0.9" stroke-width="16" stroke-linecap="round" stroke-linejoin="round"/>
<path d="M99.4025 188.56C107.731 228.089 73.5196 259.74 73.5196 297.725" stroke="white" stroke-opacity="0.9" stroke-width="16" stroke-linecap="round" stroke-linejoin="round"/>
<path d="M117.703 257.926C119.187 270.742 121.531 283.526 125.633 295.451" stroke="white" stroke-opacity="0.9" stroke-width="16" stroke-linecap="round" stroke-linejoin="round"/>
<path d="M251.461 168.092C251.357 165.329 251.132 162.747 252.514 160.132" stroke="white" stroke-opacity="0.9" stroke-width="16" stroke-linecap="round" stroke-linejoin="round"/>
</svg>
