<svg width="400" height="400" viewBox="0 0 400 400" fill="none" xmlns="http://www.w3.org/2000/svg">
<path d="M89 291.829C136.178 351.39 120.825 251.8 131.321 234.688C140.473 219.763 168.426 226.711 171.721 206.889C177.405 172.654 133.482 157.233 189.418 101.103C197.701 92.7912 209.668 86.6025 221.737 89.9054C280.646 106.029 231.398 181.8 234.817 212.68C237.06 232.929 280.175 207.964 286.758 250.902C288.166 260.074 288.267 319.567 310.614 306.112" stroke="white" stroke-opacity="0.9" stroke-width="16" stroke-linecap="round" stroke-linejoin="round"/>
<path d="M180.818 241.289C197.31 262.581 151.352 274.541 171.482 300.386" stroke="white" stroke-opacity="0.9" stroke-width="16" stroke-linecap="round" stroke-linejoin="round"/>
<path d="M208.33 237.879C209.788 263.541 217.552 279.329 208.717 306.068" stroke="white" stroke-opacity="0.9" stroke-width="16" stroke-linecap="round" stroke-linejoin="round"/>
<path d="M236.742 248.165C276.468 246.211 234.958 294.947 257.199 306.068" stroke="white" stroke-opacity="0.9" stroke-width="16" stroke-linecap="round" stroke-linejoin="round"/>
<path d="M226.73 156.053C227.429 153.522 227.198 150.751 227.433 148.098" stroke="white" stroke-opacity="0.9" stroke-width="16" stroke-linecap="round" stroke-linejoin="round"/>
<path d="M205.816 156.053C206.412 153.077 206.282 150.035 206.282 146.961" stroke="white" stroke-opacity="0.9" stroke-width="16" stroke-linecap="round" stroke-linejoin="round"/>
</svg>
