<svg width="400" height="400" viewBox="0 0 400 400" fill="none" xmlns="http://www.w3.org/2000/svg">
<path d="M66.3377 155.388C65.7708 151.515 66.1155 142.825 71.4265 141.899C79.0689 140.57 79.2956 146.18 84.6566 147.58C96.4535 150.665 174.292 120.705 191.564 116.358C198.101 114.713 198.198 105 210.563 105C216.167 105 212.949 113.528 227.103 117.659C231.821 119.036 321.537 144.755 335.638 153.613C336.375 154.076 342.097 149.711 345.475 149.711C349.585 149.711 348.061 156.318 347.512 158.231" stroke="white" stroke-opacity="0.9" stroke-width="16" stroke-linecap="round" stroke-linejoin="round"/>
<path d="M76.0438 157.18C104.715 153.671 133.644 159.144 162.337 159.144C180.702 159.144 198.876 159.796 217.155 160.78C232.592 161.607 248.391 161.432 263.851 161.432C268.61 161.432 339.399 162.499 339.992 163.068C341.344 164.376 339.313 175.156 339.313 177.794C339.313 179.238 340.507 188.39 339.992 188.592C312.456 199.24 148.067 185.975 105.484 185.975C100.317 185.975 74.2748 188.841 70.6327 185.319C69.0401 183.779 71.0896 170.186 71.3068 167.649" stroke="white" stroke-opacity="0.9" stroke-width="16" stroke-linecap="round" stroke-linejoin="round"/>
<path d="M50.2399 286.757C48.2835 274.679 58.8072 280.438 63.1705 276.216C65.5956 273.869 62.1377 268.977 67.2563 267.326C86.9115 260.985 201.221 265.128 226.173 267.326C254.045 269.778 307.073 262.416 331.665 271.936C337.53 274.208 346.898 286.066 349.359 294" stroke="white" stroke-opacity="0.9" stroke-width="16" stroke-linecap="round" stroke-linejoin="round"/>
<path d="M78.54 192.729C75.2103 217.791 74.8765 243.244 74.8765 268.404" stroke="white" stroke-opacity="0.9" stroke-width="16" stroke-linecap="round" stroke-linejoin="round"/>
<path d="M95.6602 189.392C95.5489 213.231 94.1778 238.972 96.1587 261.728" stroke="white" stroke-opacity="0.9" stroke-width="16" stroke-linecap="round" stroke-linejoin="round"/>
<path d="M120.11 189.392C117.82 213.426 116.295 237.66 114.546 261.728" stroke="white" stroke-opacity="0.9" stroke-width="16" stroke-linecap="round" stroke-linejoin="round"/>
<path d="M133.018 191.617C130.467 214.481 133.489 242.725 131.687 262.84" stroke="white" stroke-opacity="0.9" stroke-width="16" stroke-linecap="round" stroke-linejoin="round"/>
<path d="M156.834 190.504C155.165 212.389 152.383 234.105 152.383 256.163" stroke="white" stroke-opacity="0.9" stroke-width="16" stroke-linecap="round" stroke-linejoin="round"/>
<path d="M170.257 192.729C170.227 216.032 169.009 239.434 169.009 262.84" stroke="white" stroke-opacity="0.9" stroke-width="16" stroke-linecap="round" stroke-linejoin="round"/>
<path d="M127.227 203.675C125.215 203.711 123.631 203.17 121.895 202.927" stroke="white" stroke-opacity="0.9" stroke-width="16" stroke-linecap="round" stroke-linejoin="round"/>
<path d="M164.531 202.629C161.934 203.12 160.138 201.951 158.041 201.631" stroke="white" stroke-opacity="0.9" stroke-width="16" stroke-linecap="round" stroke-linejoin="round"/>
<path d="M194.64 190.504C194.317 211.918 192.477 233.888 192.477 255.05" stroke="white" stroke-opacity="0.9" stroke-width="16" stroke-linecap="round" stroke-linejoin="round"/>
<path d="M211.075 192.729C210.357 215.678 210.574 238.717 210.574 261.727" stroke="white" stroke-opacity="0.9" stroke-width="16" stroke-linecap="round" stroke-linejoin="round"/>
<path d="M234.735 198.294C230.696 217.051 233.372 237.419 230.283 256.163" stroke="white" stroke-opacity="0.9" stroke-width="16" stroke-linecap="round" stroke-linejoin="round"/>
<path d="M247.257 198.294C247.517 219.421 248.118 240.78 248.922 261.727" stroke="white" stroke-opacity="0.9" stroke-width="16" stroke-linecap="round" stroke-linejoin="round"/>
<path d="M276.09 198.294C276.696 219.814 273.428 241.434 273.428 262.84" stroke="white" stroke-opacity="0.9" stroke-width="16" stroke-linecap="round" stroke-linejoin="round"/>
<path d="M293.809 199.407C293.414 220.715 294.808 241.656 294.808 262.84" stroke="white" stroke-opacity="0.9" stroke-width="16" stroke-linecap="round" stroke-linejoin="round"/>
<path d="M321 199.407C320.7 220.28 317.879 247.076 319.001 265.066" stroke="white" stroke-opacity="0.9" stroke-width="16" stroke-linecap="round" stroke-linejoin="round"/>
<path d="M335.889 198.294C335.35 223.471 333.895 248.801 333.895 273.968" stroke="white" stroke-opacity="0.9" stroke-width="16" stroke-linecap="round" stroke-linejoin="round"/>
<path d="M196.897 203.278C200.248 202.326 202.739 203.495 205.8 203.695" stroke="white" stroke-opacity="0.9" stroke-width="16" stroke-linecap="round" stroke-linejoin="round"/>
<path d="M233.622 204.357C235.117 204.099 236.593 203.716 238.074 203.36" stroke="white" stroke-opacity="0.9" stroke-width="16" stroke-linecap="round" stroke-linejoin="round"/>
<path d="M281.475 207.848C282.979 208.035 284.481 207.724 285.926 207.601" stroke="white" stroke-opacity="0.9" stroke-width="16" stroke-linecap="round" stroke-linejoin="round"/>
<path d="M81.1602 206.21C82.665 206.459 84.1663 206.045 85.6116 205.88" stroke="white" stroke-opacity="0.9" stroke-width="16" stroke-linecap="round" stroke-linejoin="round"/>
<path d="M324.876 210.348C328.342 210.461 331.54 209.814 334.892 209.597" stroke="white" stroke-opacity="0.9" stroke-width="16" stroke-linecap="round" stroke-linejoin="round"/>
</svg>
